<svg xmlns="http://www.w3.org/2000/svg" xml:space="preserve" baseProfile="basic" viewBox="0 0 144 161.214">
  <path fill="#FFF" d="M.015 0H144v71.981c-.974 58.674-66.725 89.515-74.996 89.23C60.401 160.917-.18 130.741 0 71.677.004 70.613.015 0 .015 0z"/>
  <path fill="#FFF" d="M3.487 3.827h137.131v68.554c-.93 55.881-63.551 85.25-71.429 84.981-8.19-.28-65.889-29.02-65.715-85.273.002-1.01.013-68.262.013-68.262z"/>
  <path fill="#A90533" stroke="#A90533" stroke-miterlimit="3.864" stroke-width=".504" d="M3.474 45.489c.199.198.008-41.651.008-41.651h137.031V45.49L3.474 45.489z"/>
  <path fill="#004684" stroke="#004684" stroke-miterlimit="3.864" stroke-width=".504" d="M11.153 106.466c5.27 11.079 11.787 20 20.935 27.59L71.99 93.713l38.406 39.395c7.918-7.239 15.629-16.006 21.155-26.391L71.941 49.37l-60.516 57.214-.272-.118z"/>
  <path fill="none" stroke="#004684" stroke-miterlimit="3.864" stroke-width=".504" d="m3.474 45.772 137.03-.018"/>
  <path fill="#FFF" stroke="#004684" stroke-miterlimit="3.864" stroke-width=".504" d="M106.178 14.188h3.73c2.733-.624 3.729-2.209 6.531-2.209 2.018 0 2.969 1.34 4.45 1.34 1.252 0 3.173-1.428 5.282-1.428 2.154 0 3.22 1.294 4.635 1.896 1.252.536 2.895.507 4.634.507-.048 1.25 0 1.993 0 3.041 0 1.071 1.435.647 1.435 2.389 0 1.83-1.855 1.473-1.855 2.209l-.066 6.806c.093.848 1.808.96 1.808 2.253 0 1.919-1.91 1.255-1.785 2.768.092 1.115 0 3.481 0 3.481-3.685 0-27.376.216-28.534.172.07-2.522.462-2.372.548-3.587.07-.982-2.13-1.584-2.13-3.236 0-1.139 1.318-1.071 1.435-2.143v-6.784c-.069-.893-2.062-1.339-1.993-2.61.083-1.522 1.854-1.328 1.854-2.344-.003-.444.045-2.096.021-2.521z"/>
  <path fill="none" stroke="#004684" stroke-miterlimit="3.864" stroke-width=".504" d="M109.213 14.301s.047 15.175 0 18.746c0 0 22.103.044 23.074-.045 0-4.04-.022-18.813-.022-18.813M120.773 13.363v19.728"/>
  <path fill="#004684" stroke="#004684" stroke-miterlimit="3.864" stroke-width=".504" d="M121.124 30.659c.972.044 2.758.701 4.493 1.227 2.246.68 4.63.204 6.394.558.557.112-10.887.201-10.887.201.044-2.21 0-1.986 0-1.986z"/>
  <ellipse cx="120.762" cy="33.583" fill="#004684" stroke="#004684" stroke-miterlimit="3.864" stroke-width=".504" rx="1.287" ry=".894"/>
  <path fill="#004684" stroke="#004684" stroke-miterlimit="3.864" stroke-width=".504" d="M120.132 30.659c-.974.044-2.759.701-4.496 1.227-2.246.68-4.628.204-6.391.558-.558.112 10.887.201 10.887.201-.047-2.21 0-1.986 0-1.986z"/>
  <path fill="#FFF" stroke="#004684" stroke-miterlimit="3.864" stroke-width=".504" d="M44.197 39.227c.369 1.45 1.458 2.41 3.242 2.41 3.313 0 6.511-2.456 8.434-3.838 1.505-1.071 3.058-2.209 3.058-4.553l-.277.893s2.595-2.588 8.987-.536c1.778.571 9.385 4.842 11.029 5.535 1.414.603 6.367 4.156 14.108 2.786 0 0 11.819-1.626 9.179-13.798-1.886-8.7-1.302-9.318-.582-12.107-.277-.134-7.229-1.696-7.044 7.944-3.014.313-6.858 2.588-4.355 8.57 1.02-1.518 2.386-3.125 4.263-3.125 1.181 0 2.427 1.697 2.502 2.946.187 3.035-2.872 4.374-6.671 3.749-1.927-.316-3.701-2.451-6.356-4.372.465-.223.887-1.787.887-2.412 0-1.54-1.32-2.253-2.222-2.768.185-.535.554-1.25.554-1.785 0-1.227-1.737-1.138-2.409-1.606.277-.38.277-.156.277-.715 0-1.786.28-2.768-3.334-2.677.301-1.764-.07-2.901-1.299-3.393l-2.688-.356c-1.667-.312-.003-.868-1.543-2.351-1.374-1.325-3.635 0-3.635 0 0-1.228-.845-2.202-2.327-2.202-.789 0-1.761.067-2.315.358l-1.114.893c-1.391 0-1.737-1.25-3.336-1.25s-2.248 1.25-2.873 2.054c-1.09-.514-1.228-1.428-2.687-1.428-.857 0-1.112.915-1.482 1.338-.952 1.049-.883 2.136-2.366 2.672l-.551-.97c-.019-.061-.033-.123-.048-.185-2.18 1.049-7.092 12.251-7.092 14.549 0 2.188 1.901 1.229 1.901 3.573 0 1.383-2.038 2.388-2.038 3.57 0 1.495 1.737 2.231 3.242 2.231l-1.019.356z"/>
  <path fill="#004684" stroke="#004684" stroke-miterlimit="3.864" stroke-width=".504" d="M49.315 29.815s2.41.927 2.41 1.428c0 .678-1.558 1.427-2.594 2.32h-1.298c.465-1.518 0-.964 0-2.32 0-1.017 1.075-1.428 1.482-1.428z"/>
  <path fill="none" stroke="#004684" stroke-miterlimit="3.864" stroke-width=".504" d="M58.119 25.707c1.252-.602.671-2.142 2.688-2.142 1.783 0 2.456 1.249 4.077 1.249 1.089 0 1.853-1.071 3.335-1.071 1.32 0 3.058 1.786 2.781 3.928 0 0 4.632-1.518 4.447 3.481 3.706-1.25 3.338 1.808 3.706 3.302.373 1.429 2.781.269 2.41 3.303"/>
  <path fill="#FFF" stroke="#004684" stroke-miterlimit="3.864" stroke-width=".504" d="M8.66 14.31h3.73c2.734-.625 3.73-2.21 6.533-2.21 2.017 0 2.965 1.339 4.447 1.339 1.25 0 3.176-1.428 5.283-1.428 2.156 0 3.221 1.294 4.634 1.896 1.25.536 2.895.508 4.634.508-.046 1.249 0 1.991 0 3.041 0 1.071 1.437.647 1.437 2.387 0 1.83-1.855 1.473-1.855 2.209l-.068 6.808c.092.847 1.807.958 1.807 2.253 0 1.92-1.908 1.255-1.783 2.767.092 1.117 0 3.481 0 3.481-3.685 0-26.876.023-28.034-.022.07-2.522-.039-2.177.046-3.392.07-.982-2.131-1.584-2.131-3.236 0-1.138 1.32-1.071 1.437-2.142v-6.785c-.068-.892-2.062-1.338-1.994-2.611.085-1.521 1.855-1.326 1.855-2.343 0-.445.046-2.097.022-2.52z"/>
  <path fill="none" stroke="#004684" stroke-miterlimit="3.864" stroke-width=".504" d="M11.695 14.421s.046 15.175 0 18.746c0 0 22.102.044 23.076-.045 0-4.039-.024-18.812-.024-18.812M23.256 13.483v19.728"/>
  <path fill="#004684" stroke="#004684" stroke-miterlimit="3.864" stroke-width=".504" d="M23.603 30.779c.974.045 2.761.702 4.496 1.227 2.246.682 4.628.204 6.393.558.557.111-10.889.201-10.889.201.046-2.209 0-1.986 0-1.986z"/>
  <ellipse cx="23.244" cy="33.703" fill="#004684" stroke="#004684" stroke-miterlimit="3.864" stroke-width=".504" rx="1.285" ry=".894"/>
  <path fill="#004684" stroke="#004684" stroke-miterlimit="3.864" stroke-width=".504" d="M22.615 30.779c-.974.045-2.76.702-4.496 1.227-2.246.682-4.628.204-6.395.558-.555.111 10.891.201 10.891.201-.048-2.209 0-1.986 0-1.986z"/>
  <path fill="#FFF" stroke="#004684" stroke-miterlimit="3.864" stroke-width=".504" d="M27.033 101.9c0-6.365 5.357-11.528 11.964-11.528 6.609 0 11.966 5.163 11.966 11.528 0 6.366-5.357 11.521-11.966 11.521-6.607 0-11.964-5.155-11.964-11.521z"/>
  <ellipse cx="71.89" cy="74.216" fill="#FFF" stroke="#004684" stroke-miterlimit="3.864" stroke-width=".504" rx="11.964" ry="11.525"/>
  <path fill="#FFF" stroke="#004684" stroke-miterlimit="3.864" stroke-width=".504" d="M90.96 101.9c0-6.365 5.356-11.528 11.966-11.528 6.606 0 11.963 5.163 11.963 11.528 0 6.366-5.356 11.521-11.963 11.521-6.61 0-11.966-5.155-11.966-11.521z"/>
  <path fill="none" stroke="#004684" stroke-miterlimit="3.864" stroke-width=".504" d="M83.89 31.256c-3.057-3.365-5.753-7.316-6.218-7.513-1.505-.625-5.097-7.766-14.733-8.302-2.449-.136-11.665.759-11.982 3.117"/>
  <path fill="none" stroke="#004684" stroke-miterlimit="3.864" stroke-width=".504" d="M58.991 33.852c.035-.231.056-.477.056-.736 0-.383-2.259-.166-2.796-.326-.371-.111.994-.656.756-.656 1.39-.536 4.951-2.103 3.708-3.303-1.206-1.161-1.925-2.388-2.596-3.125-.903-.982-1.969-1.518-3.614-1.518-1.413 0-3.703 2.452-4.654 3.122.697-.67 2.707-2.408 2.707-3.836 0-3.213-2.57-6.003-3.242-8.659M45.137 38.739c2.546 0 3.983-.178 5.189-.803 1.32-.691 3.706-2.187 4.263-3.481"/>
  <path fill="none" stroke="#004684" stroke-miterlimit="3.864" d="M3.443 3.838h137.129v68.554c-.928 55.88-63.549 85.25-71.427 84.98-8.191-.28-65.889-29.02-65.715-85.271.002-1.011.013-68.263.013-68.263z"/>
</svg>
