<svg xmlns="http://www.w3.org/2000/svg" viewBox="0 0 351.43 351.43"><defs><style>.cls-1{fill:#fff}.cls-2{fill:#fdb71a}.cls-3,.cls-4{fill:#004f9d}.cls-4{fill-rule:evenodd}</style></defs><path d="M301.56 171.87A125.88 125.88 0 1 1 175.68 45.99a125.88 125.88 0 0 1 125.88 125.88" class="cls-1"/><path d="M175.37 348.04c-95 0-172.33-77.31-172.33-172.32S80.35 3.39 175.37 3.39 347.69 80.7 347.69 175.72s-77.3 172.32-172.32 172.32Zm0-337.33c-91 0-165 74-165 165s74 165 165 165 165-74 165-165-74.02-165-165-165Z" class="cls-2"/><path d="M102.26 158.12h143.93s2.53 7.2 2 12.3-8.53 26.16-8.53 26.16l-1.53 4.81H110.65s-5-15.22-5.35-16.62-3-26.65-3-26.65" class="cls-2"/><path d="M175.72 4.55A171.16 171.16 0 1 1 4.55 175.71 171.16 171.16 0 0 1 175.72 4.55m0-4.55C78.82 0 0 78.82 0 175.71s78.82 175.72 175.72 175.72 175.71-78.83 175.71-175.72S272.61 0 175.72 0" class="cls-3"/><path d="M175.29 255.24c27.3 0 42.8-3.84 66.78-29.28l-1.44-1c-2.89-1.87-3.92-2.92-1-7.5s15.5-28.56 18.19-44.81c3.52 5.83 5.59 15.42 6.41 18.12 5.17-5.41 11-10 14.47-13.75-.62 7.51-4.34 27.72-9.92 37.94 3.72 2.29 3.1 1.87 5.17 3.13s2.9 2.71.41 7.08c-17.08 30.12-41.64 46.36-76.7 55.85 0 2.3.83 4.39-3.72 5.21s-10.15 1.26-18.62 1.26-14.06-.41-18.61-1.26-3.73-2.91-3.73-5.21c-35.06-9.49-59.61-25.73-76.7-55.85-2.47-4.37-1.65-5.84.41-7.08s1.45-.84 5.18-3.13c-5.59-10.22-9.3-30.43-9.92-37.94 3.51 3.76 9.3 8.34 14.47 13.75.82-2.7 2.89-11 6.4-16.88 2.69 16.26 16.55 39.82 19.44 44.41.44.69 2.45 4.09.41 5.41l-3.3 1.87c20.67 24.4 38.66 29.7 65.95 29.7" class="cls-3"/><path d="M104.34 113.46h141.39v43.91H104.34zM112.72 201.37s-.05 0 0 .15c19.13 42.67 60.63 56.16 61.17 56.37l1.14.4.85-.31c.55-.19 47.23-14.19 65.82-56.64ZM186.74 108.85l.4-9.53a7 7 0 0 1 2.28-4.33c.55-.68 1.5-1.9 1.5-2.77l-.47-2.94h-30.16l-.47 2.94a5.72 5.72 0 0 0 1.51 2.77 7 7 0 0 1 2.26 4.33l.39 9.53Z" class="cls-1"/><path d="M192.26 174.01h10.7v10.71h-10.7zM180.95 162.75h10.74v10.71h-10.74zM203.52 185.28h10.71v10.71h-10.71zM203.52 162.75h10.71v10.71h-10.71zM180.95 185.28h10.74v10.71h-10.74zM226.05 162.75h10.71v10.71h-10.71zM214.79 174.01h10.71v10.71h-10.71zM226.05 185.28h10.71v10.71h-10.71zM124.62 174.01h10.71v10.71h-10.71zM169.68 174.01h10.71v10.71h-10.71zM113.36 185.28h10.71v10.71h-10.71zM135.89 185.28h10.7v10.71h-10.7zM113.36 162.75h10.71v10.71h-10.71zM158.42 162.75h10.7v10.71h-10.7zM135.89 162.75h10.7v10.71h-10.7zM158.42 185.28h10.7v10.71h-10.7zM147.15 174.01h10.71v10.71h-10.71z" class="cls-3"/><path d="m213.74 108.55-.39-9.31a7.37 7.37 0 0 0-2.37-4.55c-.6-.72-1.58-2-1.58-2.9l-.58-5.82a19 19 0 0 1 2.76-3.09c1.19-.91 1.58-4.18 1.19-5.81v-3.64h-23.95v-7.09h-26.91v7.09h-23.92v3.69c-.4 1.63 0 4.9 1.18 5.81a19.74 19.74 0 0 1 2.77 3.09l-.59 5.82c0 .9-1 2.18-1.58 2.9a7.32 7.32 0 0 0-2.38 4.55l-.38 9.31H99.43v49.52c0 77.37 66.19 102.19 73.76 104.78l1.86.68 1.86-.7c7.55-2.57 73.73-27.38 73.73-104.76v-49.57Zm-106.7 74.78c0 .11.05.22.06.29l-.06-.29m135.86.6c.05-.26.1-.44.11-.48 0 .17-.08.32-.11.48m2.83-25.81a118.73 118.73 0 0 1-1.08 15.94h-7.34v10.66h5.38c-12.66 53.16-61.13 71.33-67.52 73.52l-.13.05-.29-.1c-6.26-2.14-54.71-20.31-67.37-73.47h5.8v-10.71h-7.76a118.73 118.73 0 0 1-1.08-15.89v-44.66h141.39Z" class="cls-3"/><path d="M145.27 91.94h12.44l.57-4.02h-12.7l-.31 4.02zM181.44 80.79h-12.17l-.44 6.59h13.05l-.44-6.59zM186.75 108.82l.39-9.5a7 7 0 0 1 2.28-4.33 5.78 5.78 0 0 0 1.5-2.77l-.47-2.94h-2.32v2.43h-3.45v-2.43h-3.3v2.43h-3.67v-2.43H173v2.43h-3.67v-2.43h-3.3v2.43h-3.43v-2.43h-2.31l-.47 2.94a5.72 5.72 0 0 0 1.51 2.77 7 7 0 0 1 2.26 4.33l.39 9.5h6.31v-7.88a5.07 5.07 0 1 1 10.13 0v7.88ZM206.11 94.27h-13.52a12.64 12.64 0 0 1-.83 1.14 6.43 6.43 0 0 0-2.11 4v.8h19.46v-.8a6.43 6.43 0 0 0-2.11-4 12.64 12.64 0 0 1-.83-1.14M192.99 91.6h12.46l-.28-3.68h-12.71l.53 3.68zM161.23 102.92h-19.67l-.23 5.9h20.12l-.22-5.9zM188.67 76.55v1.49c-.35 1.45 0 4.35 1.05 5.16a12.38 12.38 0 0 1 1.92 2h13.91a12.81 12.81 0 0 1 1.92-2c1.06-.81 1.4-3.71 1.06-5.16v-1.49h-3.48v2.09h-4.72v-2.09h-3.66v2.09h-4.71v-2.09ZM189.52 102.92l-.23 5.9h20.12l-.23-5.9h-19.66zM161.12 100.24v-.8a6.53 6.53 0 0 0-2.11-4c-.18-.22-.39-.5-.6-.8h-14c-.21.3-.43.58-.6.8a6.48 6.48 0 0 0-2.11 4v.8ZM145.19 85.24h13.91a13.33 13.33 0 0 1 1.92-2.05c1.05-.8 1.4-3.7 1.05-5.15v-1.49h-3.25v2.09h-4.7v-2.09h-3.67v2.09h-4.71v-2.09h-3.52v1.49c-.35 1.45 0 4.35 1.06 5.15a13.26 13.26 0 0 1 1.91 2.05M165 70.26v1.29c-.35 1.45 1.61 4.35 2.65 5.15a4.57 4.57 0 0 1 1.11 1.42h13.19a4.4 4.4 0 0 1 1.1-1.41c1.05-.8 3-3.7 2.65-5.15v-1.3h-4.23v2.4h-4v-2.4h-4.33v2.4h-4v-2.4Z" class="cls-1"/><path d="M175.26 210.76a11.33 11.33 0 1 0 11.33 11.36 11.34 11.34 0 0 0-11.33-11.33M136.73 127.5a11.33 11.33 0 1 0 11.34 11.32 11.34 11.34 0 0 0-11.34-11.32M213.66 127.5a11.33 11.33 0 1 0 11.32 11.32 11.35 11.35 0 0 0-11.32-11.32" class="cls-3"/><path d="M46.19 209.31c.34-4.59-1.33-12-10.82-15.46-.22 2.21 3.66 13.61 10.82 15.46M32.38 194.29c-3.15 2.89-7.1 11.49-2.28 18.72 3.32-3.17 7-9.79 2.28-18.72M29.73 178.25c-3.51 2.46-8.57 10.45-4.76 18.27 3.72-2.71 8.26-8.77 4.76-18.27M26.42 170.29a4.61 4.61 0 1 0 4.7-4.54 4.63 4.63 0 0 0-4.7 4.54M43.03 193.49c.38-4.59-1.24-12-10.71-15.55-.23 2.24 3.56 13.65 10.71 15.55M43.62 226.2c1.7-4.27 2.32-11.83-5.7-18-1.66 3.94-1.69 13.4 5.7 18M47.82 132.12c.1 4.59-2 11.9-11.62 14.87-.09-2.23 4.37-13.41 11.62-14.87M33.25 146.39c-3-3.05-6.5-11.84-1.3-18.82 3.15 3.35 6.5 10.15 1.3 18.82M30.04 162.34c-3.37-2.63-8-10.88-3.79-18.49 3.56 2.9 7.79 9.2 3.79 18.49M44.12 147.83c.14 4.59-1.86 11.91-11.51 14.95-.11-2.24 4.28-13.44 11.51-14.95M45.91 115.04c1.47 4.34 1.7 11.93-6.64 17.67-1.45-4-1-13.48 6.64-17.67M305.44 209.31c-.35-4.59 1.32-12 10.83-15.46.21 2.21-3.67 13.61-10.83 15.46M319.24 194.29c3.15 2.89 7.11 11.49 2.29 18.72-3.32-3.17-7-9.79-2.29-18.72M321.9 178.25c3.5 2.46 8.57 10.45 4.75 18.27-3.71-2.71-8.26-8.77-4.75-18.27M325.21 170.29a4.62 4.62 0 1 1-4.7-4.54 4.63 4.63 0 0 1 4.7 4.54M308.59 193.49c-.37-4.59 1.24-12 10.72-15.55.23 2.24-3.57 13.65-10.72 15.55M308.01 226.2c-1.7-4.27-2.32-11.83 5.7-18 1.66 3.94 1.69 13.4-5.7 18M303.82 132.12c-.11 4.59 1.94 11.9 11.61 14.87.1-2.23-4.37-13.41-11.61-14.87M318.38 146.39c3-3.05 6.49-11.84 1.3-18.82-3.15 3.35-6.51 10.15-1.3 18.82M321.59 162.34c3.37-2.63 8-10.88 3.79-18.49-3.57 2.9-7.79 9.2-3.79 18.49M307.51 147.83c-.14 4.59 1.86 11.91 11.51 14.95.11-2.24-4.28-13.44-11.51-14.95M305.72 115.04c-1.47 4.34-1.7 11.93 6.63 17.67 1.46-4 1-13.48-6.63-17.67" class="cls-2"/><path d="M108.51 218.88c-5-9-15.3-27.72-16.54-35.43-2.28 4.37-3.52 9.59-4.35 12.5-3.71-2.91-9.3-7.92-11.37-10 1.45 6.48 3.29 19.37 7.83 26.46 4.34-2.72 5.81-4 7.87-5.42s4.05-2.12 7 1.63 6.51 8 9.61 10.27M243.32 218.05c5-9 14.06-28.14 15.3-35.86 2.28 4.38 3.52 10.85 4.35 13.76 3.71-2.91 9.29-7.92 11.37-10-1.45 6.48-3.28 19.37-7.84 26.46-4.34-2.72-5.79-4-7.86-5.42s-3.54-1-6.43 2.73a41.12 41.12 0 0 1-8.89 8.34" class="cls-1"/><path d="M151.3 261.19c-.23-1.81 2.18-3.11 5.62-4-34.5-5.67-46.44-27.39-61.23-45.17-2.84-3.42-3.32-1.23-3.52-1-1.24 1.26-11.54 8.15-13 9-2.7 1.56-.85 2.18 1.42 6.23 11.81 21.18 38 43.82 72.3 51-.26-5.13-1.12-12.24-1.6-15.95M271.09 219.93c-1.45-.83-10.82-7.31-12.06-8.56-.19-.19-1-2.63-3.51 1-16.29 24.11-32.65 40.22-61.82 44.81 3.43.89 5.82 2.17 5.59 4-.48 3.71-1.34 10.82-1.6 15.95 34.31-7.18 60.49-29.8 72.3-51 2.26-4 3.79-4.67 1.1-6.23" class="cls-1"/><path d="M175.29 263.79s15.12-.42 17.8-.83c3.68-.58 3.19-.44 2.69 4.48-.41 4-.83 10-.83 12.71s-1.45 3.14-3.52 3.34-10.56 1-16.14 1-14.06-.85-16.13-1-3.52-.63-3.52-3.34-.41-8.75-.83-12.71c-.51-4.92-1-5.06 2.7-4.48 2.69.41 17.78.83 17.78.83" class="cls-1"/><path d="m96.8 222.67 1.36 2.19-12.11 2.86-1.22-2 7.86-9.67 1.39 2.24-6.21 6.96 8.93-2.58zM103.13 233.95l-4.08-4.73-1.89 1.65 3.75 4.35-1.54 1.34-3.75-4.34-2.28 2 4.27 4.96-1.6 1.39-5.85-6.77 8.88-7.78 5.66 6.56-1.57 1.37z" class="cls-3"/><path d="m107.09 238.12-2.27 2.26 2 2a3 3 0 0 0 1 .75 1.3 1.3 0 0 0 1.45-.41 1.53 1.53 0 0 0 .55-1.6 2.84 2.84 0 0 0-.7-1Zm4.95 2.51a3 3 0 0 1 .22 1.38 3.72 3.72 0 0 1-.27 1.15 3.26 3.26 0 0 1-.72 1 3.64 3.64 0 0 1-1.45.96 2.41 2.41 0 0 1-1.79-.18 2.23 2.23 0 0 1 .15 1.48 4 4 0 0 1-1.06 1.55l-.56.56a5.65 5.65 0 0 0-.72.83 1 1 0 0 0-.16.79l-.22.22-1.91-1.94.34-.56a5.27 5.27 0 0 1 .64-.79l.77-.79a1.56 1.56 0 0 0 0-2.69l-1.79-1.81-3.26 3.29-1.7-1.71 8.31-8.38 4.08 4.11a5.09 5.09 0 0 1 1.13 1.57" class="cls-4"/><path d="m110.75 254.23-1.97-1.44 6.91-9.6 1.97 1.46-6.91 9.58zM127.51 251.35l-1.1 1.77-2.98-1.89-5.13 8.28-2.1-1.32 5.13-8.28-3-1.88 1.11-1.78 8.07 5.1z" class="cls-3"/><path d="m127.93 259.95 2.66 1.37.79-4.82Zm3.46-6.49 2.43 1.26-1.63 12.47-2.37-1.21.42-2.53-3.86-2-1.82 1.78-2.25-1.11Z" class="cls-4"/><path d="M138.01 265.63a2.34 2.34 0 0 0 .05 1.29 2.43 2.43 0 0 0 1.72 1.33 3.64 3.64 0 0 0 1.4.26 1.35 1.35 0 0 0 1.4-1 1 1 0 0 0-.21-1 5.44 5.44 0 0 0-1.35-1l-1.1-.64a8.19 8.19 0 0 1-2.14-1.66 2.92 2.92 0 0 1-.33-2.81 3.4 3.4 0 0 1 1.89-2.16 4.76 4.76 0 0 1 3.54.06 5 5 0 0 1 2.71 1.92 3.59 3.59 0 0 1 .43 3.17l-2.25-.74a1.69 1.69 0 0 0-.42-1.73 3 3 0 0 0-1.26-.72 2.7 2.7 0 0 0-1.56-.12 1.22 1.22 0 0 0-.87.85 1 1 0 0 0 .24 1.09 6.59 6.59 0 0 0 1.3.94l1.78 1.09a5.41 5.41 0 0 1 1.65 1.45 2.92 2.92 0 0 1 .26 2.63 3.38 3.38 0 0 1-2 2.18 5.1 5.1 0 0 1-3.63-.06 5.62 5.62 0 0 1-3.11-2.12 3.53 3.53 0 0 1-.36-3.19ZM212.09 256.73l2.38-.93.47 12.52-2.17.84-7.92-9.64 2.45-.94 5.58 7.48-.79-9.33zM224.87 263.73l-2.19 1.07-5.16-10.66 2.2-1.07 5.15 10.66z" class="cls-3"/><path d="m226.66 251.5 1.68 2.69 2.36-1.48a2.89 2.89 0 0 0 .95-.83 1.28 1.28 0 0 0-.08-1.51 1.42 1.42 0 0 0-1.36-.86 2.89 2.89 0 0 0-1.12.45Zm3.55-4.3a3 3 0 0 1 1.39.1 3.48 3.48 0 0 1 1 .51 3.53 3.53 0 0 1 .85.94 3.72 3.72 0 0 1 .51 1.64 2.37 2.37 0 0 1-.58 1.72 2.22 2.22 0 0 1 1.47.18 4.13 4.13 0 0 1 1.27 1.4l.4.67a5.83 5.83 0 0 0 .65.89.93.93 0 0 0 .73.34l.16.26-2.3 1.44c-.19-.19-.36-.33-.47-.46a6.29 6.29 0 0 1-.62-.8l-.59-.93c-.41-.64-.79-1-1.15-1.06a2.12 2.12 0 0 0-1.44.47l-2.16 1.35 2.44 3.95-1.95 1.31-6.23-10.05 4.88-3.09a5.28 5.28 0 0 1 1.78-.75" class="cls-4"/><path d="m240.79 237.9 1.37 1.59-2.66 2.33 6.35 7.36-1.87 1.63-6.35-7.36-2.66 2.34-1.38-1.59 7.2-6.3zM243.32 235.3l1.73-1.81 5.2 5a4.26 4.26 0 0 0 1.47 1 2.43 2.43 0 0 0 2.71-2.82 4.31 4.31 0 0 0-1.08-1.45l-5.2-5.06 1.73-1.81 5.2 5.06a6 6 0 0 1 1.7 2.47c.41 1.41-.08 2.86-1.5 4.34s-2.83 2-4.26 1.66a5.91 5.91 0 0 1-2.51-1.62ZM259.6 228.49a2.34 2.34 0 0 0 1.23.34 2.52 2.52 0 0 0 1.77-1.27 4.47 4.47 0 0 0 .66-1.28 1.4 1.4 0 0 0-.52-1.64 1 1 0 0 0-1-.09 5.25 5.25 0 0 0-1.37 1l-.94.87a7.9 7.9 0 0 1-2.2 1.58 2.81 2.81 0 0 1-2.76-.49 3.42 3.42 0 0 1-1.49-2.46 4.87 4.87 0 0 1 1.07-3.4 5.09 5.09 0 0 1 2.63-2.05 3.46 3.46 0 0 1 3.14.52l-1.35 1.95a1.7 1.7 0 0 0-1.77-.11 3.22 3.22 0 0 0-1.06 1 2.74 2.74 0 0 0-.55 1.47 1.21 1.21 0 0 0 .55 1.09 1 1 0 0 0 1.09.07 5.74 5.74 0 0 0 1.27-1l1.57-1.38a5.18 5.18 0 0 1 1.85-1.17 2.84 2.84 0 0 1 2.57.52 3.41 3.41 0 0 1 1.49 2.57 5.26 5.26 0 0 1-1.13 3.48 5.62 5.62 0 0 1-2.93 2.38 3.41 3.41 0 0 1-3.11-.58ZM157.13 270.92l.14-1.56a9.94 9.94 0 0 0 1.51 0 2.07 2.07 0 0 0 1.18-.52 2 2 0 0 0 .51-.8 2.36 2.36 0 0 0 .14-.45l1.88.17-1 11.67-2.33-.21.7-8ZM173.63 270.49a15.3 15.3 0 0 0-1.51 1.73 16.12 16.12 0 0 0-1.68 2.62 17 17 0 0 0-1 2.61 10.78 10.78 0 0 0-.53 2.56l-2.37-.13a14.28 14.28 0 0 1 2.39-6.43 15.77 15.77 0 0 1 2.25-2.82l-5.78-.31.14-2.05 8.2.42Z" class="cls-3"/><path d="M178.17 278.02a1.6 1.6 0 0 0 1.25.41 1.55 1.55 0 0 0 1.21-.54 2 2 0 0 0 .37-1.36 1.83 1.83 0 0 0-.52-1.33 1.59 1.59 0 0 0-1.24-.4 1.61 1.61 0 0 0-1.2.53 1.87 1.87 0 0 0-.38 1.37 1.9 1.9 0 0 0 .51 1.32m-2.52-2.85a2.77 2.77 0 0 1 1.25-1.26 2.76 2.76 0 0 1-1.17-1.16 3.48 3.48 0 0 1-.31-1.22 2.87 2.87 0 0 1 .84-2.22 3.76 3.76 0 0 1 2.64-1 3.71 3.71 0 0 1 2.73.76 2.91 2.91 0 0 1 1.07 2.11 3.37 3.37 0 0 1-.19 1.25 2.33 2.33 0 0 1-1 1.19 3.27 3.27 0 0 1 1.35 1.22 3.56 3.56 0 0 1 .52 1.76 3.3 3.3 0 0 1-.95 2.57 4.16 4.16 0 0 1-3 1.19 3.89 3.89 0 0 1-3-.86 3.56 3.56 0 0 1-1.14-2.47 3.71 3.71 0 0 1 .35-1.82m2.39-2.48a1.63 1.63 0 0 0 2.16-.12 1.63 1.63 0 0 0-.11-2.1 1.37 1.37 0 0 0-1.09-.35 1.52 1.52 0 0 0-1 2.57M193.09 269.27a15.12 15.12 0 0 0-1.27 1.94 16.73 16.73 0 0 0-1.28 2.81 16.38 16.38 0 0 0-.64 2.74 11.06 11.06 0 0 0-.17 2.61l-2.37.2a13.94 13.94 0 0 1 1.49-6.7 15.65 15.65 0 0 1 1.83-3.12l-5.79.51-.15-2.06 8.2-.72Z" class="cls-4"/><path d="M175.72 9.64C84.15 9.64 9.64 84.12 9.64 175.72s74.51 166.07 166.08 166.07 166.1-74.49 166.1-166.07S267.29 9.64 175.72 9.64m149.66 134.21c4.22 7.61-.43 15.86-3.79 18.49-4-9.29.22-15.57 3.79-18.49m-19.94 65.46c-.35-4.58 1.32-12 10.82-15.46.22 2.21-3.66 13.61-10.82 15.46m2.57 16.89c-1.71-4.25-2.33-11.82 5.7-18 1.65 3.94 1.69 13.4-5.7 18m.59-32.71c-.39-4.58 1.23-12 10.71-15.55.22 2.24-3.57 13.66-10.71 15.55m-1.1-45.65c7.24 1.5 11.63 12.71 11.52 14.95-9.65-3-11.66-10.36-11.52-14.95m8.48 22.61a4.61 4.61 0 1 1 4.69 4.53 4.62 4.62 0 0 1-4.69-4.53m3.69-42.88c5.2 7 1.7 15.78-1.29 18.83-5.21-8.67-1.85-15.48 1.29-18.83m-15.85 4.55c7.25 1.46 11.72 12.64 11.62 14.87-9.66-3-11.72-10.26-11.62-14.87m8.55.58c-8.34-5.73-8.11-13.32-6.63-17.66 7.62 4.2 8.08 13.64 6.63 17.66m-18.09 43A118.55 118.55 0 1 1 175.72 57.12a118.67 118.67 0 0 1 118.54 118.6M45.9 115.04c1.49 4.34 1.71 11.93-6.62 17.66-1.45-4-1-13.46 6.62-17.66m1.92 17.08c.11 4.61-2 11.9-11.61 14.87-.1-2.23 4.37-13.41 11.61-14.87m-12.45 61.73c9.5 3.47 11.16 10.88 10.82 15.46-7.16-1.85-11-13.25-10.82-15.46m8.25 32.35c-7.39-4.59-7.36-14.05-5.7-18 8 6.17 7.41 13.74 5.7 18m-8-55.75a4.61 4.61 0 1 1-4.53-4.7 4.61 4.61 0 0 1 4.53 4.7m-3-7.66c-.12-2.24 4.26-13.45 11.51-14.95.13 4.59-1.87 11.9-11.51 14.95m10.41 30.7c-7.14-1.89-10.94-13.31-10.71-15.55 9.48 3.56 11.09 11 10.71 15.55m-11.08-65.92c3.15 3.35 6.51 10.16 1.3 18.83-3-3.05-6.49-11.85-1.3-18.83m-5.7 16.28c3.57 2.92 7.8 9.2 3.79 18.49-3.37-2.63-8-10.88-3.79-18.49m-1.28 52.68c-3.8-7.83 1.26-15.82 4.76-18.28 3.51 9.48-1 15.56-4.76 18.28m7.42-2.24c4.73 8.93 1 15.55-2.29 18.72-4.82-7.23-.86-15.83 2.29-18.72m289.14 18.72c-3.32-3.17-7-9.79-2.29-18.72 3.15 2.89 7.1 11.49 2.29 18.72m.36-34.76c3.52 2.46 8.58 10.45 4.76 18.28-3.72-2.72-8.26-8.8-4.76-18.28" class="cls-3"/><path d="m43.08 248.76 17.25-9.92a3 3 0 0 1 1.16-.53c.32 0 .65.48 1.3 1.62a6.6 6.6 0 0 1 .75 5.26 6.74 6.74 0 0 1-3.14 3.82c-3.51 2-6.65 1.55-9.17-1.43l-.07-.09h-.11a1.2 1.2 0 0 0-1.31 1v.18a10 10 0 0 0 .59 1.11c1.36 2.38 4.88 6.4 9.39 6.4a8.45 8.45 0 0 0 4.18-1.17 8 8 0 0 0 4-7.31c-.07-2.6-1.27-5.95-3.57-9.94a96.24 96.24 0 0 0-5.77-9.2l-.08-.08a1.23 1.23 0 0 0-1.63.79v.1l.74 1.67c.66 1.61.48 1.83-3.23 4l-14.45 8.3c-1.8 1-3.07 1.69-3.84 1.69s-1-.45-1.69-1.34l-.53-.72h-.1a1.36 1.36 0 0 0-1.26.42.87.87 0 0 0-.26.67v.14c1 1.63 2.17 3.49 3.26 5.39s2.07 3.68 3.49 6.36v.07h.07a.68.68 0 0 0 .41.1 1.45 1.45 0 0 0 1.27-.85v-.11l-.8-1.79c-.87-1.94-1-2.24 3-4.54M60.82 274.33l13.07-10.77c2.06-1.7 3-2.3 3.69-2.3s1 .38 1.66 1.07l.87.81h.22a1.34 1.34 0 0 0 1-.53 1 1 0 0 0 .21-.8l-.07-.13c-1.45-1.62-2.88-3.27-4.24-4.93s-2.79-3.47-4.09-5.19l-.12-.09a1.28 1.28 0 0 0-1.55 1v.1l.64 1c1.16 1.81 1.34 2.08-2.23 5l-13.06 10.89c-2.06 1.69-3 2.3-3.68 2.3s-.95-.39-1.67-1.08l-.87-.81h-.22a1.3 1.3 0 0 0-1 .53.94.94 0 0 0-.21.8l.08.12c1.4 1.57 2.89 3.3 4.3 5s2.73 3.39 4 5.1l.12.1a.73.73 0 0 0 .33.08 1.32 1.32 0 0 0 1.21-1.11v-.11l-.64-1c-1.15-1.82-1.34-2.09 2.23-5M102.58 289.18l.07-.09a29 29 0 0 1 5.1-5l.12-.09v-.16a1.08 1.08 0 0 0-.46-.85 1.66 1.66 0 0 0-.7-.3h-.19a1.92 1.92 0 0 1-.69.14c-.63 0-1.31-.48-2.61-1.55l-15.4-12.73c-2.62-2.16-2.85-2.47-2.45-3.23v-.12a1.08 1.08 0 0 0-1.2-1l-.12.05a70.83 70.83 0 0 1-5.82 4.07l-.11.07v.11a1.11 1.11 0 0 0 .25 1 1.49 1.49 0 0 0 1.05.68H79.57a8.4 8.4 0 0 1 3.37-1c1.49 0 2.8.87 4.84 2.55l2.11 1.75c.42.34.6.52.58.66a4.12 4.12 0 0 1-.88 1.27l-12.53 15.16c-1.85 2.25-2.66 3-3.34 3a3.37 3.37 0 0 1-1.62-.8l-1.73-1.14-.21-.05a1.17 1.17 0 0 0-.89.59 1 1 0 0 0-.14 1l.1.12c2.64 2.05 4.36 3.41 5.93 4.72s3.22 2.71 5.45 4.68l.14.06h.18a1.08 1.08 0 0 0 .81-.43 1.2 1.2 0 0 0 .33-.9v-.12l-1.32-1.35c-1.5-1.51-1.73-1.74 1.21-5.3l12.54-15.16c.47-.58.91-1.12 1.13-1.12a1.72 1.72 0 0 1 .7.46l2.15 1.77c4 3.3 4 4.4 2.36 7.34l-.06.1v.13a1.57 1.57 0 0 0 1.66 1.1ZM133.75 304.19l.1-.07v-.1a29.22 29.22 0 0 1 3.66-6.16l.09-.11v-.16a1.11 1.11 0 0 0-.66-.71 1.94 1.94 0 0 0-.75-.1H136a1.54 1.54 0 0 1-1 .36 7.34 7.34 0 0 1-2.58-.88l-18.13-8.4c-3.08-1.43-3.38-1.67-3.19-2.5v-.13a1.11 1.11 0 0 0-1.42-.65l-.1.08a68.13 68.13 0 0 1-4.6 5.4l-.08.09v.13a1.05 1.05 0 0 0 .34.74 1.64 1.64 0 0 0 1.35.53l.13-.05c1.72-1.4 2.81-1.91 4-1.91a11.16 11.16 0 0 1 4.33 1.35l2.49 1.15c.49.24.71.36.73.5a4.66 4.66 0 0 1-.45 1.53l-8.27 17.83c-1.35 2.92-2 3.75-2.75 3.75a5 5 0 0 1-1.5-.39l-2-.69h-.08a1.08 1.08 0 0 0-.75.74 1 1 0 0 0 .09 1l.12.1c3.07 1.3 5.07 2.19 6.93 3.05s3.79 1.8 6.47 3.15H116.23a1 1 0 0 0 .76-.46 1.24 1.24 0 0 0 .18-1.14v-.11l-1.62-.95c-1.83-1.09-2.12-1.26-.17-5.45l8.27-17.85c.44-.95.65-1.37.86-1.37a2.65 2.65 0 0 1 .75.27l2.53 1.18c4.7 2.17 5 3.23 4.14 6.48v.13l.06.11a1.71 1.71 0 0 0 1.38.77.92.92 0 0 0 .51-.13M156.75 302.51l-.15-.07-1.53-.66a24.17 24.17 0 0 0-4.87-1.73 16.3 16.3 0 0 0-3.63-.43c-4.71 0-8.19 2.49-9.07 6.48-.77 3.49.9 7 5 10.4l1.82 1.52c2.88 2.41 3.92 4.64 3.35 7.2a4.36 4.36 0 0 1-4.62 3.45 8.18 8.18 0 0 1-1.73-.19c-5-1.1-6.15-7.32-6.33-8.55v-.09l-.05-.07a1.53 1.53 0 0 0-2-.18l-.06.07v.09c-.62 2.56-.79 6 0 7.32l.07.08a15.8 15.8 0 0 0 7.57 3.67 17.63 17.63 0 0 0 3.79.43c5.06 0 8.65-2.58 9.6-6.9 1.06-4.77-2-8.36-4.73-10.52l-2.64-2.14c-2.51-2-3.66-4.18-3.23-6.11.57-2.62 2.92-3.9 6-3.22 3.79.84 4.83 4 5 6.43v.11l.08.09a1.62 1.62 0 0 0 2 .2l.06-.06v-.09a18.09 18.09 0 0 0 .31-6.39ZM180.5 317.12c3.56-1.09 5.62-3.25 5.67-5.95a6.47 6.47 0 0 0-3.5-6.26c-2-1.13-5-1.67-9.73-1.75h-2.87c-3 0-5.75.09-8.33.25h-.13a1 1 0 0 0-.47.76 1.25 1.25 0 0 0 .33 1l.08.08 1.38.17c2 .22 2 .4 2 4.85l-.27 16.66c-.08 4.63-.4 4.66-2.54 4.87l-1.18.14-.08.07a1.25 1.25 0 0 0-.33 1.09 1 1 0 0 0 .48.76h.16c2.15-.05 4.45-.06 6.59 0l2.79.12c1.06 0 2.16.1 3.28.13h.91c5 0 8.15-.73 10.44-2.43a7.67 7.67 0 0 0 3.23-6.28c.1-6.43-5.92-8-7.89-8.34m-5.05 14.59h-.13c-2 0-3.1-.41-3.68-1.28s-.69-2.28-.65-4.3l.1-6.54c0-.7 0-.84 1.61-.84h.33a9.61 9.61 0 0 1 6.23 2 6.55 6.55 0 0 1 2.19 5.28c-.06 4.19-3.27 5.68-6 5.68m-2.24-15.33h-.29c-1.78 0-1.78 0-1.76-.93l.13-8.24c0-1.5 0-1.56 1.66-1.56h.64a6.8 6.8 0 0 1 4 1.3 4.8 4.8 0 0 1 1.77 4.07c0 3.77-1.91 5.37-6.18 5.37M221.57 308.12c-.82-3.43-1.75-7.31-1.41-8.73.12-.6.73-.92 1.66-1.34l1-.48.12-.08a1.17 1.17 0 0 0-.55-1.74h-.19c-1.68.49-3 .86-5 1.35-1.87.44-3.71.83-5.3 1.12h-.1a.87.87 0 0 0-.43.86 1.14 1.14 0 0 0 .66 1h.08l1.06-.1a3 3 0 0 1 2.41.5c1.15 1.07 2.28 5.8 2.89 8.34l1.33 5.53c.82 3.43.78 6.25-.12 8.37s-2.9 3.77-5.79 4.46c-5.52 1.32-9.19-1.7-10.92-8.95l-2.44-10.11c-1.07-4.48-.77-4.6 1.24-5.39l1.11-.41.06-.1a1.22 1.22 0 0 0 .06-1.11 1 1 0 0 0-.66-.6H202.19c-2.06.58-4.19 1.14-6.34 1.65s-4.28 1-6.16 1.33l-.14.07a.94.94 0 0 0-.31.83 1.24 1.24 0 0 0 .55 1h.09l.94-.06c.4 0 .74-.08 1-.08 1.13 0 1.57.33 2.52 4.32l2.69 11.25c1.1 4.59 2.93 7.52 5.58 8.93a11.18 11.18 0 0 0 5.37 1.24 23.19 23.19 0 0 0 5.35-.72c2.8-.66 6.59-2.2 8.74-5.7 1.68-2.74 1.91-6.3.73-11.23ZM265.82 305.3h-.18a5.89 5.89 0 0 1-2.33.45 6.24 6.24 0 0 1-1.13-.1c-2.77-.43-6.78-2.66-12.85-6l-.31-.18a.67.67 0 0 1-.26-.17c1.57-1.85 3.91-5.53 1.75-9.49a7.34 7.34 0 0 0-6.84-4h-.42c-2.33.06-5.37 1.12-9.06 3.13s-7.25 4.12-9.72 5.77l-.09.09a1 1 0 0 0 0 .89 1.22 1.22 0 0 0 .8.74h.1l1.29-.54a3.51 3.51 0 0 1 1.29-.36c.81 0 1.36.93 2.82 3.62l8 14.64c2.21 4.07 1.94 4.25.19 5.49l-1 .69v.07a1 1 0 0 0 .1 1 1.11 1.11 0 0 0 .88.55l.2-.05c1.91-1.14 3.84-2.24 5.72-3.27s3.85-2.05 5.77-3l.12-.09a1 1 0 0 0 .08-.91 1.26 1.26 0 0 0-.81-.81h-.1l-1.11.43a4.73 4.73 0 0 1-1.54.45c-.78 0-1.45-.8-3-3.58l-2.79-5.12c-.11-.2-.26-.48-.23-.56a3.76 3.76 0 0 1 .95-.61 3.6 3.6 0 0 1 1.64-.59 3.08 3.08 0 0 1 1.46.5c.83.43 1.74 1 2.71 1.54 1.22.73 2.48 1.46 3.66 2.06a15 15 0 0 0 6.71 1.92 11.17 11.17 0 0 0 5.45-1.55 14.86 14.86 0 0 0 2.77-1.82l.1-.09v-.13a1.1 1.1 0 0 0-.8-1.1m-24.12-3.24a5.32 5.32 0 0 1-1.68.76c-.19 0-.31-.17-.68-.86l-4.51-8.23c-.91-1.68-.91-1.68 1.08-2.76a6.77 6.77 0 0 1 3.25-.87 6.25 6.25 0 0 1 5.47 3.43c2 3.71 1.09 6.45-2.91 8.62M292.59 280.43h-.16c-.71.24-1.51-.21-2.67-1.48l-1.79-1.94c-1.87-2-1.74-2.32-.74-3.51l.56-.7.06-.13a1.12 1.12 0 0 0-1.38-1.28l-.13.08c-1.38 1.38-2.59 2.56-4.3 4.12-2.38 2.19-4.2 3.79-5.71 5.06l-.07.06v.09a1 1 0 0 0 .19.88 1.28 1.28 0 0 0 1 .55h.1l1.57-1.05a5.46 5.46 0 0 1 2.4-1.19c.62 0 1.16.56 2.34 1.84l1.1 1.21a5.55 5.55 0 0 1 1.54 2.2c0 .57-.39 1.62-2.4 3.47a12.87 12.87 0 0 1-8.42 3.5 7 7 0 0 1-.91-.05c-4.22-.39-7.47-3.05-9.47-5.22-5.58-6.1-5.49-12.87.26-18.15 3.58-3.29 7.47-3.82 11-1.47h.09c.45.15 1-.24 1.23-.55a1.19 1.19 0 0 0 .27-1v-.09l-.06-.07c-1.38-1.31-2.54-2.33-3.48-3.16s-1.44-1.28-1.88-1.74l-.22-.22-.23.22a20.92 20.92 0 0 1-2.54 1.78 38.09 38.09 0 0 0-5.31 3.94c-4.95 4.54-7.71 9.64-8 14.74a15 15 0 0 0 4 11.17 14.83 14.83 0 0 0 10.39 4.97h.38c4.68 0 9.64-2.28 14.35-6.6a53.28 53.28 0 0 0 6.22-7.39 10.85 10.85 0 0 1 1.44-1.8l.07-.07v-.09a.72.72 0 0 0-.12-.56.81.81 0 0 0-.57-.37M320.01 242.31a1.33 1.33 0 0 0-1.23-.44h-.1l-.75.93c-.68.85-1.06 1.3-1.66 1.3-.76 0-2-.68-3.81-1.78l-14.45-8.86c-3.94-2.41-3.8-2.72-2.9-4.67l.37-.88v-.08a1.25 1.25 0 0 0-1.68-.87l-.11.12c-.92 1.67-2 3.55-3.18 5.45s-2.32 3.7-3.56 5.55l-.06.14a.89.89 0 0 0 .26.68 1.27 1.27 0 0 0 1.28.43l.8-.94c.67-.86 1.06-1.31 1.66-1.31.76 0 2 .68 3.81 1.78l4.7 2.88c.56.35.64.46.63.63a6.19 6.19 0 0 1-1 1.89l-6 9.76c-.68 1.1-1.1 1.76-1.4 1.76a1.81 1.81 0 0 1-.71-.32l-4.69-2.87c-4-2.42-3.81-2.72-2.9-4.69l.34-.83v-.08a1.27 1.27 0 0 0-1.69-.87l-.1.12c-.9 1.64-2 3.5-3.15 5.4s-2.38 3.79-3.57 5.55v.14a.84.84 0 0 0 .26.69 1.2 1.2 0 0 0 1.27.43l.8-.95c.68-.85 1.06-1.3 1.66-1.3.76 0 2 .68 3.81 1.78l14.45 8.85c3.94 2.42 3.81 2.72 2.94 4.69l-.32.73v.1a1.35 1.35 0 0 0 1.24.94.93.93 0 0 0 .44-.12l.1-.12c.86-1.56 2-3.47 3.13-5.37s2.29-3.64 3.72-5.79l.05-.14a.9.9 0 0 0-.25-.7 1.28 1.28 0 0 0-1.23-.43h-.1l-1 1.24c-.71.94-1.06 1.32-1.63 1.32-.75 0-2-.68-3.8-1.77l-5.7-3.5c-.54-.33-.62-.44-.61-.62a7 7 0 0 1 1-1.89l6-9.76c.67-1.1 1.1-1.76 1.39-1.76a1.74 1.74 0 0 1 .67.31l5.71 3.49c3.94 2.42 3.8 2.72 2.9 4.67l-.49 1.09v.1a1.34 1.34 0 0 0 1.23.93.7.7 0 0 0 .45-.13l.1-.1c1-1.86 2.15-3.78 3.33-5.7s2.31-3.68 3.52-5.48l.05-.14a.85.85 0 0 0-.25-.68M64.87 87.77l-3.34-2.32c-2-1.42-4.61-3.2-5.16-4.09-.19-.31-.07-.69.17-1.28l.3-.77v-.1a1.09 1.09 0 0 0-1.36-.81h-.13l-.07.11c-.61 1-1.07 1.73-1.85 2.85s-1.45 2-2.1 2.86l-.07.13a.77.77 0 0 0 .13.68 1.07 1.07 0 0 0 1.11.41h.1l.53-.54a1.78 1.78 0 0 1 1.22-.7h.11c1.09.09 4.07 2.15 5.67 3.26l3.51 2.44c4.46 3.09 5.65 6.19 3.54 9.23s-5.4 2.86-9.89-.26l-6.47-4.44c-2.74-1.9-2.66-2-2.1-3.23l.39-.77v-.13a1.13 1.13 0 0 0-1.4-.77h-.09l-.06.1c-.75 1.19-1.55 2.4-2.37 3.59s-1.67 2.34-2.44 3.33l-.07.09v.11a.86.86 0 0 0 .23.64 1.23 1.23 0 0 0 .85.41h.25l.5-.49c.47-.49.69-.69 1-.69a7.49 7.49 0 0 1 2.79 1.52l7.12 4.94c2.5 1.74 4.62 2.58 6.49 2.58a5.69 5.69 0 0 0 1-.09c2.17-.38 4-1.77 5.83-4.37a8.57 8.57 0 0 0 1.56-7c-.56-2.24-2.29-4.3-5.43-6.48M93.22 73.53l-.11-.09c-.38-.32-1.89-1.89-4.14-4.29l-5.57-6c-1.7-1.82-3.81-4.08-4.18-5.1-.12-.33 0-.64.43-1.15l.49-.72v-.06a1 1 0 0 0-.29-.73 1.06 1.06 0 0 0-.77-.38h-.26l-.09.09c-.77.82-1.34 1.41-2.38 2.38s-1.77 1.61-2.76 2.44l-.09.11a.76.76 0 0 0 0 .78 1.06 1.06 0 0 0 1 .57h.11l.7-.48c.66-.44 1-.55 1.42-.44 1.08.35 3.54 3 4.87 4.39l4.49 4.82c-1-.09-2.56-.28-3.92-.44l-2.3-.27-4.87-.49c-2-.21-7.22-1-8.48-1.58l-.27-.14-.2.23c-.49.55-1 1.09-1.53 1.58l-.31.28a31.8 31.8 0 0 1-2.51 2.28l-.1.12a.79.79 0 0 0 0 .81 1.14 1.14 0 0 0 .88.59h.11l.51-.31a4.69 4.69 0 0 1 1.52-.61h.2c1.16 0 1.46.31 3.08 2l5.68 6.07c1.79 1.92 3.81 4.09 4.2 5.07.12.33-.06.66-.46 1.18l-.45.7v.1a1 1 0 0 0 .29.74 1.08 1.08 0 0 0 .77.38h.25l.1-.09c.75-.8 1.35-1.41 2.36-2.35s1.83-1.67 2.73-2.42l.09-.11a.8.8 0 0 0 0-.8 1.13 1.13 0 0 0-1-.56h-.12l-.67.46c-.68.46-1.08.57-1.43.46-1.07-.37-3.53-3-4.86-4.41l-4.56-4.9-.87-.93c.55 0 1.31.15 2.31.27l2.41.3 11.73 1.51c3.56.46 5.06.67 5.92.84h.18l.15-.11a1.63 1.63 0 0 0 .62-1.48ZM106.15 62.89h-.14l-.78.37a2.66 2.66 0 0 1-.93.34c-.45 0-1-.6-2.24-2.47L95 50.58c-1.85-2.77-1.73-2.88-.75-3.75l.64-.57v-.14a1.19 1.19 0 0 0-.3-.89 1 1 0 0 0-.74-.36h-.11l-.09.07c-1.13.84-2.3 1.66-3.48 2.46s-2.45 1.59-3.66 2.31l-.09.06-.05.1a.83.83 0 0 0 0 .75 1.22 1.22 0 0 0 .74.68h.14l.78-.37a2.45 2.45 0 0 1 .94-.34c.44 0 1 .6 2.23 2.47l7.06 10.55c1.86 2.77 1.73 2.88.75 3.75l-.63.57v.14a1.19 1.19 0 0 0 .3.89.91.91 0 0 0 .67.36h.18l.08-.07c1.11-.82 2.34-1.68 3.55-2.49s2.39-1.56 3.6-2.28l.09-.06.05-.09a.87.87 0 0 0 0-.77 1.18 1.18 0 0 0-.74-.67M121.61 30.69h-.14l-.12.07c-.78.43-1.72.91-2.76 1.39s-1.91.86-3.15 1.36l-.12.05-.07.11a.94.94 0 0 0-.06.76 1.16 1.16 0 0 0 .63.69l.12.06 1.08-.2a2.37 2.37 0 0 1 .42-.05c.18 0 .3 0 .4 1.16.36 4.33.58 8.71.8 12.94v.73c-.76-.69-1.86-1.69-2.71-2.52l-4.67-4.53a42.48 42.48 0 0 1-3.27-3.3s.06-.15.51-.52l.64-.52.11-.14a1 1 0 0 0 0-.89 1 1 0 0 0-.7-.55h-.13l-.12.06c-1.56.8-2.53 1.29-3.8 1.88s-2.42 1.1-3.55 1.55l-.13.08a.76.76 0 0 0-.2.72 1.15 1.15 0 0 0 .64.85l.12.05.89-.2a3 3 0 0 1 .65-.09c.64 0 1.14.38 2.52 1.69l11.15 10.64a45 45 0 0 1 3.2 3.39l.1.11H120.22a1.72 1.72 0 0 0 .67-.15c.1 0 .6-.3.65-.7v-.1c-.24-1.8-.55-6-.7-9.39l-.2-5.75c-.12-3-.2-5.24-.09-6.88a2.25 2.25 0 0 1 1.06-1.82l.8-.6v-.18c.05-.47-.25-1.21-.81-1.3M150.51 41.43l-.09-.1a1.18 1.18 0 0 0-1.66.11l-.07.18c-.37 2.79-.69 3.81-4.5 4.74a11.55 11.55 0 0 1-2.61.48 1.12 1.12 0 0 1-.77-.22c-.53-.38-.91-1.67-1.28-3.07l-1.1-4.19a3.56 3.56 0 0 0-.15-.48 1.89 1.89 0 0 1 .38-.12l1.49-.39a12 12 0 0 1 2.41-.5c.45 0 .66.13 1 .82l.63 1.4.15.06a1.23 1.23 0 0 0 1.48-.53v-.12l-.32-1.06c-.23-.78-.48-1.61-.72-2.49s-.45-1.86-.62-2.65l-.17-.78-.09-.08a1.19 1.19 0 0 0-1.62.3l-.07.11.09 1.33c.11 1.06 0 1.19-2.78 1.93l-1.5.39c-.12 0-.31.09-.32.13a2.67 2.67 0 0 1-.17-.54l-1.47-5.58a4.39 4.39 0 0 1-.24-1.49c0-.11.49-.23.82-.32l2.09-.55a9.32 9.32 0 0 1 2.23-.35h.24c.85 0 1.43.55 2.4 2.28l.07.12h.12a.87.87 0 0 0 .37.07 1.18 1.18 0 0 0 1.15-.76v-.22c-.26-.63-.58-1.51-.88-2.32-.37-1-.68-1.86-.84-2.17l-.17-.33-.35.15c-.33.15-2 .62-4.11 1.18l-6 1.57c-1.42.37-2.88.72-4 .95h-.11l-.08.07a.84.84 0 0 0-.23.73 1.19 1.19 0 0 0 .48.87l.12.08.68.05a5.27 5.27 0 0 1 .63-.05c.62 0 .91.12 1.69 3.12l3.24 12.28c.85 3.22.69 3.28-.52 3.75l-1.25.49-.07.13a1.2 1.2 0 0 0 0 1 .87.87 0 0 0 .56.51H134.31c1.42-.45 3.35-1 4.63-1.33l3.55-.93c3.69-1 6.35-1.64 7.71-1.92l.25-.06.05-.25a22.76 22.76 0 0 0 .06-5.26ZM176.55 42.88h-.13a3.64 3.64 0 0 1-2.07-.8c-1.53-1.15-3.37-3.9-6.16-8.06l-.14-.22a.25.25 0 0 1 0-.07 6.17 6.17 0 0 0 3.49-6 5.77 5.77 0 0 0-3.45-5.07 13.06 13.06 0 0 0-6.39-.71c-2.78.22-5.48.55-7.4.9l-.18.08a.88.88 0 0 0-.31.69 1.16 1.16 0 0 0 .33.87l.11.1h1c1.13 0 1.2 0 1.47 3.36l1 12.46c.27 3.32.11 3.36-1.17 3.64l-.81.18-.08.08a1 1 0 0 0-.24.9.94.94 0 0 0 .5.73H156.13a85.49 85.49 0 0 1 8.57-.68h.11l.09-.05a.92.92 0 0 0 .36-.68 1.22 1.22 0 0 0-.32-.95l-.11-.09-.85-.06c-1.3-.07-1.47-.08-1.74-3.4l-.42-4.29c0-.1 0-.31-.06-.31a3.77 3.77 0 0 1 .63-.09c.85-.07 1.1-.1 1.73.83.38.55.8 1.21 1.23 1.89.55.87 1.12 1.77 1.68 2.55 2 2.77 3.94 4.39 7.42 4.11a8.58 8.58 0 0 0 2.2-.39l.16-.06.08-.15a1 1 0 0 0-.25-1.16Zm-10.67-11a4.16 4.16 0 0 1-3.1 1.35h-1.1a2.27 2.27 0 0 1-.1-.67l-.57-7.08a2.86 2.86 0 0 1 0-1.15 2.89 2.89 0 0 1 1.18-.22h.36c2.18 0 3.85 1.79 4.05 4.33a4.83 4.83 0 0 1-.74 3.46M194.74 22.72l-.19-.06-1.05-.32a13.8 13.8 0 0 0-3.36-.78c-4.55-.38-7.68 2-8 6-.23 2.72 1.16 5.18 4.13 7.3l1.31.94c2 1.46 2.85 2.91 2.69 4.85a3.12 3.12 0 0 1-3.7 2.95c-3.21-.27-4.43-4.65-4.64-5.53v-.1l-.07-.08a1.12 1.12 0 0 0-1.63.1l-.07.18c-.2 2 0 4.6.59 5.52l.09.09a9.73 9.73 0 0 0 5.35 2h1c4.2 0 7.13-2.51 7.46-6.41s-2.36-6.34-4-7.43l-1.89-1.3c-1.75-1.18-2.64-2.62-2.52-4a3 3 0 0 1 3.49-2.9c1.95.17 3.17 1.54 3.63 4.09v.13l.09.08a1.17 1.17 0 0 0 1.65-.08l.06-.18a15.27 15.27 0 0 0-.31-4.83ZM213.44 25.93h-.11c-1.4-.24-2.81-.52-4.19-.82s-2.83-.67-4.2-1h-.22a.85.85 0 0 0-.53.55 1.17 1.17 0 0 0 0 1l.07.12.8.3c1.22.45 1.38.51.66 3.76l-2.75 12.4c-.66 3-.93 3.16-1.6 3.16h-.58l-.86-.06-.11.08a1.21 1.21 0 0 0-.45.89.87.87 0 0 0 .26.72l.08.07h.11c1.36.23 2.83.52 4.25.84s2.79.65 4.14 1h.22a.88.88 0 0 0 .53-.54 1.21 1.21 0 0 0 0-1l-.07-.12-.81-.3c-1.22-.46-1.38-.52-.66-3.77l2.75-12.4c.66-3 .93-3.16 1.6-3.16h.59l.85.07.11-.08a1.16 1.16 0 0 0 .45-.9.86.86 0 0 0-.26-.72ZM241.71 35.25v-.16a.87.87 0 0 0-.58-.6 1.13 1.13 0 0 0-.59 0h-.13l-.1.09a.86.86 0 0 1-.65.31 5 5 0 0 1-1.54-.44l-12.3-4.76c-2.14-.83-2.13-.92-2-1.4v-.14a.7.7 0 0 0-.5-.54.75.75 0 0 0-.76.05l-.1.11c-.65 1-1.86 2.84-3 4.32l-.09.1v.14a.93.93 0 0 0 .28.63 1.21 1.21 0 0 0 1.14.34l.14-.09c1.22-1.25 2-1.69 2.86-1.69a7.57 7.57 0 0 1 2.53.66l1.68.65a3.66 3.66 0 0 1 .37.16 4.23 4.23 0 0 1-.33 1l-5.32 13.75c-1 2.48-1.3 2.88-1.75 2.88a3.23 3.23 0 0 1-.85-.18l-1.45-.32h-.11a1 1 0 0 0-.6.71.91.91 0 0 0 .11.88l.07.08h.1c2.09.72 3.45 1.22 4.68 1.69s2.58 1 4.37 1.8h.2a.87.87 0 0 0 .62-.46 1.19 1.19 0 0 0 .12-1l-.05-.13-1.17-.62c-1.14-.59-1.29-.67-.09-3.78l5.32-13.75a5.63 5.63 0 0 1 .43-1 2 2 0 0 1 .41.12l1.71.66c3.06 1.19 3.25 1.86 2.73 4.25v.14l.08.14a1.17 1.17 0 0 0 1.56.38l.1-.08v-.12a24.77 24.77 0 0 1 2.35-4.78ZM265.53 49.75l-.11-.06q-1.32-.69-2.64-1.5c-.76-.47-1.55-1-2.81-1.85l-.13-.06h-.13a.89.89 0 0 0-.7.36 1.1 1.1 0 0 0-.25.9v.11l.81.82c.25.21.28.29.28.32a10.18 10.18 0 0 1-1.79 1.33c-2.2 1.38-4.27 2.67-6.49 4 .18-2.06.49-4.21.81-6.47l.23-1.65a12 12 0 0 1 .34-1.67 1.59 1.59 0 0 1 .37.13l1 .4h.11a1.09 1.09 0 0 0 .73-.64.9.9 0 0 0 0-.83l-.06-.1-.11-.06c-.62-.29-2.24-1.25-3.53-2-1.1-.68-2.24-1.42-3.38-2.2l-.27-.08a.87.87 0 0 0-.65.35 1.18 1.18 0 0 0-.33.87v.14l.71.71c.95.91.95 1.23.79 2.8l-.95 8.93a6.82 6.82 0 0 1-1.29 4l-1.05 1.72c-1.19 1.92-1.71 2.53-2.15 2.53a2.53 2.53 0 0 1-.93-.32l-1.07-.48h-.14a1.16 1.16 0 0 0-.71.71.81.81 0 0 0 0 .76l.05.09h.09c1.6.9 2.84 1.63 4 2.36s2.27 1.42 4.07 2.63l.09.06h.15a.87.87 0 0 0 .67-.37 1.17 1.17 0 0 0 .28-.92v-.14l-1.09-.85c-1.09-.84-1.2-.93.55-3.77l1.11-1.64a7.42 7.42 0 0 1 3.4-3.35l.79-.47c1.55-.92 3.14-1.88 4.81-2.8 2.14-1.2 3-1.68 3.8-1.68a2.55 2.55 0 0 1 .92.2l1 .36h.13a1.24 1.24 0 0 0 .7-.7.87.87 0 0 0 0-.74ZM291.88 78.81a11.14 11.14 0 0 0-3.24-8.93 11.67 11.67 0 0 0-8.52-3.76 12.92 12.92 0 0 0-8.78 3.69 12.1 12.1 0 0 0-3.92 7.94 12.15 12.15 0 0 0 11.8 12.59 12.41 12.41 0 0 0 8.46-3.5 13 13 0 0 0 4.2-8m-4-1.6a15.58 15.58 0 0 1-4.18 6.23c-2.52 2.37-5 3.62-7.16 3.62a5.31 5.31 0 0 1-3.94-1.76c-1.59-1.69-2-3.85-1.09-6.4a15.87 15.87 0 0 1 4.12-6c2.46-2.31 4.93-3.53 7.13-3.53a5.37 5.37 0 0 1 4 1.74 6 6 0 0 1 1.06 6.07M309.42 98.24c-.39-.49-1.34-1.88-2.53-3.72l-3.32-5.1c-.81-1.26-1.55-2.46-2.07-3.39l-.06-.1h-.1a1.13 1.13 0 0 0-1.44.74v.13l.22.51c.54 1.21.61 1.36-2.19 3.18l-10.65 6.92a7.68 7.68 0 0 1-2.8 1.43c-.3 0-.5-.2-.95-.73l-.56-.65h-.28a1.27 1.27 0 0 0-.88.42.84.84 0 0 0-.25.61v.11l.07.09c.84 1.18 1.67 2.39 2.44 3.58s1.44 2.27 2.59 4.17l.05.09.1.05a.67.67 0 0 0 .34.09 1.21 1.21 0 0 0 1.1-.82v-.14l-.67-1.37c-.59-1.13-.67-1.28 2.12-3.09l4-2.6a2.31 2.31 0 0 0 .4-.29 1.58 1.58 0 0 1 .24.31l1 1.6c1.57 2.41 1.53 2.58.76 3.34l-1 .94-.1.16a1 1 0 0 0 .2.89.92.92 0 0 0 .75.43h.12l.72-.51c.71-.5 1.48-1 2.29-1.57s1.68-1 2.37-1.46l.63-.37v-.1a.89.89 0 0 0-.06-.83 1.08 1.08 0 0 0-.76-.57h-.09l-1.2.45a2 2 0 0 1-.73.18c-.51 0-1-.61-2-2.23l-1-1.6c-.05-.06-.18-.27-.21-.27a2.26 2.26 0 0 1 .44-.33l5.13-3.33a4.51 4.51 0 0 1 1.3-.72c.11 0 .36.38.54.66l.89 1.38a9.21 9.21 0 0 1 1.2 2.32c.31 1-.09 1.8-1.54 3.12l-.13.12v.18a1.22 1.22 0 0 0 1.12 1.18l.18-.07c1.25-.89 3.31-2.23 4.07-2.73l.37-.23Z" class="cls-1"/><path fill="none" d="M0 0h351.43v351.43H0z"/></svg>