<svg xmlns="http://www.w3.org/2000/svg" viewBox="0 0 996.4 344.43"><defs><style>.cls-1{fill:#1cade1;}</style></defs><title>iDEA Blue</title><g id="Layer_2" data-name="Layer 2"><g id="Layer_1-2" data-name="Layer 1"><g id="_Group_" data-name="&lt;Group&gt;"><circle id="_Path_" data-name="&lt;Path&gt;" class="cls-1" cx="85.36" cy="46.98" r="46.98"/><path id="_Compound_Path_" data-name="&lt;Compound Path&gt;" class="cls-1" d="M869.77,44.86H790.31L693.22,274.55v-.23H533.45V227.15H676.23v-65H533.45v-45H691.1V47H451.87v77.3C427,76.93,374.6,47,300.31,47H185.58V304H157.31c-23.9,0-28.3-5-28.3-29.56V120.86H0v41.73H20.13c27.67,0,28.3,6.92,28.3,33.33V274.4C48.43,298.3,44,304,18.87,304H0v40.47H298.61c75.09,0,128.2-31.37,153.26-79.7v79.7h298.5l21.24-53.11H886.34L908,344.43H996.4ZM383.59,196.13c0,48-32.72,75.21-82,75.21H268V120.07h33.56c49.29,0,82,27.62,82,75.21Zm412.25,31,33.57-84.56,33.14,84.56Z"/></g></g></g></svg>